PathFileType	4	(X/Y/Z)	/Users/itak/Documents/Research/Walk-IL/dataset/trc/00527_00183.trc
DataRate	CameraRate	NumFrames	NumMarkers	Units	OrigDataRate	OrigDataStartFrame	OrigNumFrames
100.000000	100.000000	4	53	mm	100.000000	417	477
Frame#	Time	RPSI			LPSI			L3			STRN			T10			C7			CLAV			RBAK			LBAK			LSHO			LUPA			LAEL			LAOL			LWTS			LWPS			LFRA			LIFD			LHPS			LHTS			RSHO			RUPA			RAEL			RAOL			RWTS			RWPS			RFRA			RIFD			RHTS			RHPS			RBHD			LFHD			RFHD			LBHD			LHIP			RHIP			RASI			LASI			LKNE			LTHI			LANK			LTIP			LTOE			LMT1			LMT5			LHEE			RKNE			RTHI			RANK			RTIP			RTOE			RMT1			RMT5			RHEE			
		X1	Y1	Z1	X2	Y2	Z2	X3	Y3	Z3	X4	Y4	Z4	X5	Y5	Z5	X6	Y6	Z6	X7	Y7	Z7	X8	Y8	Z8	X9	Y9	Z9	X10	Y10	Z10	X11	Y11	Z11	X12	Y12	Z12	X13	Y13	Z13	X14	Y14	Z14	X15	Y15	Z15	X16	Y16	Z16	X17	Y17	Z17	X18	Y18	Z18	X19	Y19	Z19	X20	Y20	Z20	X21	Y21	Z21	X22	Y22	Z22	X23	Y23	Z23	X24	Y24	Z24	X25	Y25	Z25	X26	Y26	Z26	X27	Y27	Z27	X28	Y28	Z28	X29	Y29	Z29	X30	Y30	Z30	X31	Y31	Z31	X32	Y32	Z32	X33	Y33	Z33	X34	Y34	Z34	X35	Y35	Z35	X36	Y36	Z36	X37	Y37	Z37	X38	Y38	Z38	X39	Y39	Z39	X40	Y40	Z40	X41	Y41	Z41	X42	Y42	Z42	X43	Y43	Z43	X44	Y44	Z44	X45	Y45	Z45	X46	Y46	Z46	X47	Y47	Z47	X48	Y48	Z48	X49	Y49	Z49	X50	Y50	Z50	X51	Y51	Z51	X52	Y52	Z52	X53	Y53	Z53	

418	4.17	708.4767456054688	967.8895874023438	465.280029296875	775.6491088867188	961.9896240234375	361.1530151367188	747.3317260742188	1038.925903320312	404.3255310058594	932.9317016601562	1205.621459960938	509.9668579101562	732.7216186523438	1141.135986328125	392.8600463867188	764.20947265625	1373.050537109375	411.7878112792969	899.7573852539062	1299.595336914062	489.8238525390625	681.572021484375	1251.282958984375	461.9796752929688	788.0974731445312	1318.183471679688	324.4014587402344	904.62841796875	1368.673217773438	309.7550354003906	937.1889038085938	1244.747680664062	252.8067932128906	993.9283447265625	1042.948974609375	238.1626892089844	901.2050170898438	1016.563415527344	259.5821228027344	1103.543090820312	899.0620727539062	325.0557250976562	1068.940185546875	842.5616455078125	257.9895324707031	1028.543090820312	974.3718872070312	251.3530731201172	1157.675170898438	754.3995971679688	349.1003112792969	1106.371826171875	801.20361328125	275.0996398925781	1146.957153320312	831.7057495117188	316.5187683105469	736.4154663085938	1369.184448242188	566.7141723632812	691.0150146484375	1303.784912109375	607.0299682617188	654.349365234375	1039.387939453125	641.9147338867188	640.5145263671875	1022.199890136719	579.2656860351562	739.8126220703125	836.9354858398438	698.0025024414062	653.8224487304688	815.8426513671875	675.3820190429688	650.63916015625	985.138916015625	651.634033203125	734.1682739257812	676.2328491210938	705.2119140625	730.0643310546875	743.9017333984375	727.2468872070312	667.8096313476562	742.7146606445312	693.7999877929688	761.8687744140625	1532.3251953125	506.6647338867188	950.7213745117188	1584.718017578125	465.4917907714844	877.4932250976562	1578.578735351562	569.4947509765625	842.2874755859375	1537.702514648438	369.7610168457031	934.8909301757812	887.1222534179688	310.5009765625	734.9392700195312	879.8902587890625	635.06005859375	852.6368408203125	927.5350952148438	626.6702270507812	975.431396484375	928.6822509765625	417.3898315429688	941.5794677734375	468.7518920898438	396.9927673339844	958.0021362304688	625.453857421875	366.3843688964844	856.5242919921875	40.22250747680664	392.8004150390625	920.7664184570312	314.1341247558594	392.6205444335938	987.016845703125	30.59634399414062	554.6598510742188	904.22021484375	39.80164337158203	537.585205078125	950.2849731445312	31.12064361572266	446.7201843261719	785.4053344726562	43.86702728271484	420.3419189453125	807.7887573242188	496.6858520507812	649.7327270507812	767.5982666015625	753.778564453125	660.9437255859375	772.0555419921875	51.87780380249023	639.6270141601562	823.4071044921875	351.3319702148438	656.2607421875	965.3677368164062	67.51686096191406	695.5152587890625	926.5029907226562	60.42235565185547	631.736083984375	863.1961059570312	55.2009391784668	705.650146484375	748.438232421875	42.21297073364258	572.9998779296875	
419	4.18	710.7513427734375	967.78564453125	467.2626037597656	777.61669921875	961.8959350585938	362.9659423828125	749.4776611328125	1038.827270507812	406.1512756347656	935.5447998046875	1205.631591796875	510.9592895507812	734.9140625	1140.986938476562	394.3935546875	766.4258422851562	1372.921020507812	413.2215270996094	902.3038330078125	1299.581665039062	490.8403015136719	683.92529296875	1251.210083007812	463.7477722167969	790.0086669921875	1318.010375976562	325.7707214355469	906.52734375	1368.458129882812	310.6781616210938	938.890869140625	1244.428955078125	253.8385772705078	995.7713012695312	1042.624145507812	239.7896118164062	903.0579223632812	1016.227661132812	261.2686157226562	1105.573608398438	899.2804565429688	327.4503173828125	1071.442749023438	842.7929077148438	260.14013671875	1030.56591796875	974.282470703125	253.2646331787109	1159.659057617188	754.5037231445312	351.710205078125	1108.765991210938	801.4190673828125	277.5321655273438	1149.075561523438	831.903564453125	319.1748657226562	739.15673828125	1369.201782226562	568.2200927734375	693.8907470703125	1303.864379882812	608.73974609375	657.0556030273438	1039.531494140625	643.9077758789062	643.28564453125	1022.221557617188	581.2567749023438	742.7335815429688	837.3231811523438	700.226318359375	656.77490234375	816.05224609375	677.7625122070312	653.360107421875	985.2882690429688	653.702392578125	737.3173217773438	676.6731567382812	708.0585327148438	733.1312255859375	744.4232177734375	729.85205078125	670.8250732421875	743.0299682617188	696.4442749023438	764.4329833984375	1532.376098632812	507.7802429199219	953.4000244140625	1584.405639648438	466.7801513671875	880.0570068359375	1578.424682617188	570.7017822265625	845.0294189453125	1537.651977539062	370.8938598632812	936.58056640625	887.0179443359375	311.6696166992188	737.7050170898438	879.7286987304688	636.8658447265625	855.46044921875	927.4102783203125	628.1535034179688	977.6741943359375	928.6008911132812	418.4702758789062	942.3046264648438	468.5557861328125	397.0105895996094	959.1796875	625.2793579101562	366.7275085449219	856.4798583984375	40.24256134033203	392.83154296875	921.0130615234375	314.0931701660156	392.5177307128906	986.986572265625	30.58736801147461	554.6587524414062	904.2053833007812	39.79343795776367	537.5965576171875	950.2820434570312	31.12089920043945	446.7114562988281	785.366455078125	43.87320327758789	420.3809814453125	809.5288696289062	496.49072265625	651.3015747070312	769.9143676757812	753.5862426757812	662.6287231445312	773.4043579101562	51.75032806396484	640.6199340820312	825.0796508789062	351.0137023925781	657.578857421875	967.203125	64.81420135498047	696.3590698242188	927.9453125	58.80292129516602	632.6522216796875	864.7001342773438	54.0311164855957	706.5132446289062	749.4879760742188	42.51150894165039	574.0772705078125	
420	4.19	712.9758911132812	967.5734252929688	469.2306213378906	779.5675659179688	961.7320556640625	364.7950439453125	751.5702514648438	1038.662231445312	407.9898986816406	938.0900268554688	1205.617431640625	511.9841918945312	737.0830688476562	1140.777709960938	396.0048217773438	768.5266723632812	1372.724853515625	414.6828002929688	904.7610473632812	1299.541870117188	491.8717346191406	686.2044677734375	1251.085205078125	465.5748291015625	791.7802734375	1317.752807617188	327.1869506835938	908.298095703125	1368.152709960938	311.5945434570312	940.3955078125	1244.005859375	254.8528137207031	997.3279418945312	1042.170532226562	241.3843688964844	904.6172485351562	1015.805786132812	262.9515686035156	1107.297729492188	899.3086547851562	329.74560546875	1073.579345703125	842.9073486328125	262.1625061035156	1032.2685546875	974.0525512695312	255.1153717041016	1161.296875	754.3870849609375	354.07763671875	1110.821166992188	801.5106201171875	279.7654418945312	1150.8544921875	831.8991088867188	321.642333984375	741.8201293945312	1369.189086914062	569.7576293945312	696.7169189453125	1303.901000976562	610.5003051757812	659.7891845703125	1039.63232421875	645.9867553710938	646.064697265625	1022.204345703125	583.3382568359375	745.6805419921875	837.659423828125	702.5006713867188	659.7617797851562	816.2185668945312	680.1844482421875	656.1168823242188	985.4030151367188	655.8555297851562	740.5120239257812	677.07177734375	710.9266967773438	736.2164916992188	744.8823852539062	732.4880981445312	673.8907470703125	743.2920532226562	699.1115112304688	766.8497314453125	1532.353515625	508.8878173828125	955.8970336914062	1584.118774414062	467.9822387695312	882.4620971679688	1578.273803710938	571.835205078125	847.6124267578125	1537.528930664062	371.96142578125	938.3238525390625	886.9197387695312	312.9422912597656	740.3740234375	879.4361572265625	638.65380859375	858.1673583984375	927.225341796875	629.7218017578125	979.8642578125	928.5050659179688	419.6681518554688	943.0394287109375	468.3570556640625	397.0538635253906	960.3734130859375	625.1107788085938	367.0989074707031	856.4354858398438	40.25882720947266	392.8589782714844	921.2833251953125	314.0548095703125	392.4428100585938	986.9556274414062	30.57952308654785	554.6593017578125	904.1921997070312	39.78367233276367	537.6002807617188	950.2807006835938	31.1205997467041	446.703369140625	785.3219604492188	43.87779998779297	420.4140625	811.1674194335938	496.1839904785156	652.8063354492188	772.1492919921875	753.258056640625	664.260498046875	774.2491455078125	51.54656219482422	641.3552856445312	826.53955078125	350.5650939941406	658.7448120117188	968.6092529296875	61.76057815551758	696.665771484375	928.8656005859375	56.95375061035156	633.1043701171875	865.8049926757812	52.61400604248047	706.9696655273438	749.9992065429688	42.7941780090332	574.880615234375	
421	4.2	715.1500244140625	967.2576293945312	471.1920471191406	781.5066528320312	961.4968872070312	366.6441040039062	753.5996704101562	1038.42626953125	409.8417358398438	940.566162109375	1205.578735351562	513.0482177734375	739.20849609375	1140.51611328125	397.7203369140625	770.5181274414062	1372.469116210938	416.1734619140625	907.1292114257812	1299.4775390625	492.9251708984375	688.4036254882812	1250.912719726562	467.4743957519531	793.4219360351562	1317.411499023438	328.6535034179688	909.94140625	1367.759399414062	312.5101318359375	941.7150268554688	1243.482299804688	255.8591461181641	998.6087036132812	1041.593872070312	242.9465942382812	905.8959350585938	1015.300170898438	264.6347961425781	1108.725219726562	899.136474609375	331.93701171875	1075.356811523438	842.9068603515625	264.047607421875	1033.6611328125	973.683349609375	256.904296875	1162.59130859375	754.0341186523438	356.1710510253906	1112.53955078125	801.4744262695312	281.7791442871094	1152.302734375	831.6826171875	323.9032897949219	744.4109497070312	1369.153442382812	571.3291015625	699.4909057617188	1303.904418945312	612.3093872070312	662.5486450195312	1039.699951171875	648.1619262695312	648.8333740234375	1022.162963867188	585.5216674804688	748.6595458984375	837.9442138671875	704.8121948242188	662.7769775390625	816.3496704101562	682.6617431640625	658.9118041992188	985.4913940429688	658.1026611328125	743.7474365234375	677.4243774414062	713.7835693359375	739.3310546875	745.2752685546875	735.1331787109375	676.9989624023438	743.5068969726562	701.8045654296875	769.1224975585938	1532.260009765625	509.9776000976562	958.2222900390625	1583.858764648438	469.1070251464844	884.7118530273438	1578.1279296875	572.8998413085938	850.0369873046875	1537.32666015625	372.9772644042969	940.1433715820312	886.8380737304688	314.330078125	742.9507446289062	879.018310546875	640.435791015625	860.759765625	926.9755249023438	631.37255859375	982.003662109375	928.3982543945312	420.9846801757812	943.8029174804688	468.1540832519531	397.1344604492188	961.5999145507812	624.9496459960938	367.5112915039062	856.3933715820312	40.26941680908203	392.8787231445312	921.5875854492188	314.0170288085938	392.4115295410156	986.923583984375	30.57297897338867	554.66015625	904.1798095703125	39.77264404296875	537.5951538085938	950.2814331054688	31.11842918395996	446.696044921875	785.277099609375	43.88322067260742	420.4416198730469	812.7113037109375	495.7598266601562	654.2711181640625	774.3178100585938	752.8062744140625	665.8558349609375	774.6884765625	51.26344299316406	641.8780517578125	827.8106079101562	349.9908142089844	659.7608642578125	969.6766967773438	58.47943496704102	696.3770751953125	929.3416748046875	54.95085525512695	633.0558471679688	866.6298828125	51.01897430419922	707.0281372070312	750.0488891601562	43.03249740600586	575.474853515625	
